<svg width="32" height="28" viewBox="0 0 32 28" fill="none" xmlns="http://www.w3.org/2000/svg">
<path d="M31 1.01423C31 1.01423 28.2483 2.70068 26.7182 3.17869C25.8969 2.19904 24.8054 1.50469 23.5914 1.18954C22.3773 0.874403 21.0993 0.953668 19.9301 1.41664C18.761 1.8796 17.7569 2.70392 17.0541 3.7781C16.3511 4.8523 15.9832 6.12452 16 7.42273V8.83741C13.6035 8.90186 11.229 8.35049 9.08774 7.23237C6.94646 6.11425 5.10498 4.46411 3.72727 2.42891C3.72727 2.42891 -1.72727 15.1611 10.5455 20.8198C7.73709 22.7974 4.39158 23.7891 1 23.6492C13.2727 30.7226 28.2727 23.6492 28.2727 7.38029C28.2715 6.98623 28.235 6.59315 28.1636 6.2061C29.5554 4.78221 31 1.01423 31 1.01423Z" stroke="black" stroke-width="2" stroke-linecap="round" stroke-linejoin="round"/>
</svg>
