<svg width="30" height="27" viewBox="0 0 30 27" fill="none" xmlns="http://www.w3.org/2000/svg">
<path d="M14.5776 19.0554C17.9103 19.0554 20.6121 16.5681 20.6121 13.4999C20.6121 10.4316 17.9103 7.94434 14.5776 7.94434C11.2448 7.94434 8.54309 10.4316 8.54309 13.4999C8.54309 16.5681 11.2448 19.0554 14.5776 19.0554Z" stroke="black" stroke-width="2" stroke-linecap="round" stroke-linejoin="round"/>
<path d="M1 19.0556V7.94444C1 4.10914 4.37717 1 8.5431 1H20.6121C24.778 1 28.1552 4.10914 28.1552 7.94444V19.0556C28.1552 22.8908 24.778 26 20.6121 26H8.5431C4.37717 26 1 22.8908 1 19.0556Z" stroke="black" stroke-width="2"/>
<path d="M22.875 5.87529L22.8901 5.85986" stroke="black" stroke-width="2" stroke-linecap="round" stroke-linejoin="round"/>
</svg>
