<svg width="20" height="20" viewBox="0 0 20 20" fill="none" xmlns="http://www.w3.org/2000/svg">
<path d="M16.7044 8.33334H2.38623M12.7271 1.66667V5.00001M6.3635 1.66667V5.00001M6.20441 18.3333H12.8862C14.2227 18.3333 14.891 18.3333 15.4014 18.0609C15.8505 17.8212 16.2155 17.4387 16.4443 16.9683C16.7044 16.4335 16.7044 15.7335 16.7044 14.3333V7.33334C16.7044 5.93321 16.7044 5.23314 16.4443 4.69836C16.2155 4.22796 15.8505 3.84551 15.4014 3.60582C14.891 3.33334 14.2227 3.33334 12.8862 3.33334H6.20441C4.86792 3.33334 4.19968 3.33334 3.68921 3.60582C3.24018 3.84551 2.87512 4.22796 2.64633 4.69836C2.38623 5.23314 2.38623 5.93321 2.38623 7.33334V14.3333C2.38623 15.7335 2.38623 16.4335 2.64633 16.9683C2.87512 17.4387 3.24018 17.8212 3.68921 18.0609C4.19968 18.3333 4.86792 18.3333 6.20441 18.3333Z" stroke="black" stroke-width="2" stroke-linecap="round" stroke-linejoin="round"/>
</svg>
