<svg width="20" height="20" viewBox="0 0 20 20" fill="none" xmlns="http://www.w3.org/2000/svg">
<g clip-path="url(#clip0_89_678)">
<rect width="20" height="20" rx="10" fill="white"/>
<path d="M7.49984 10L9.1665 11.6667L12.9165 7.91669M6.11131 3.18227C6.78117 3.12881 7.4171 2.8654 7.92856 2.42954C9.12211 1.4124 10.8776 1.4124 12.0711 2.42954C12.5826 2.8654 13.2185 3.12881 13.8884 3.18227C15.4516 3.30701 16.6928 4.54831 16.8176 6.11149C16.871 6.78136 17.1345 7.41728 17.5703 7.92874C18.5875 9.12229 18.5875 10.8778 17.5703 12.0713C17.1345 12.5828 16.871 13.2187 16.8176 13.8885C16.6928 15.4517 15.4516 16.693 13.8884 16.8178C13.2185 16.8712 12.5826 17.1346 12.0711 17.5705C10.8776 18.5876 9.12211 18.5876 7.92856 17.5705C7.4171 17.1346 6.78117 16.8712 6.11131 16.8178C4.54812 16.693 3.30683 15.4517 3.18208 13.8885C3.12863 13.2187 2.86522 12.5828 2.42935 12.0713C1.41222 10.8778 1.41222 9.12229 2.42935 7.92874C2.86522 7.41728 3.12863 6.78136 3.18208 6.11149C3.30683 4.54831 4.54812 3.30701 6.11131 3.18227Z" stroke="black" stroke-width="2" stroke-linecap="round" stroke-linejoin="round"/>
</g>
<defs>
<clipPath id="clip0_89_678">
<rect width="20" height="20" rx="10" fill="white"/>
</clipPath>
</defs>
</svg>
