<svg width="17" height="20" viewBox="0 0 17 20" fill="none" xmlns="http://www.w3.org/2000/svg">
<path d="M2.32792 4.72239C1.80794 4.01796 1.54795 3.66574 1.53814 3.3664C1.52962 3.10636 1.62181 2.85643 1.78737 2.69074C1.97795 2.5 2.36786 2.5 3.14769 2.5H13.3522C14.132 2.5 14.5219 2.5 14.7125 2.69074C14.8781 2.85643 14.9703 3.10636 14.9618 3.3664C14.9519 3.66574 14.692 4.01796 14.172 4.72239L10.2489 10.037C10.1453 10.1774 10.0935 10.2477 10.0565 10.3276C10.0237 10.3984 9.99967 10.4747 9.98511 10.554C9.9687 10.6435 9.9687 10.7377 9.9687 10.9261V15.382C9.9687 15.5449 9.9687 15.6264 9.94701 15.6969C9.92785 15.7591 9.89669 15.8149 9.85612 15.8596C9.81021 15.9102 9.74779 15.9404 9.62296 16.001L7.28546 17.1343C7.03278 17.2568 6.90643 17.3181 6.80501 17.2925C6.71632 17.2702 6.63848 17.2063 6.58843 17.1148C6.5312 17.0101 6.5312 16.8452 6.5312 16.5153V10.9261C6.5312 10.7377 6.5312 10.6435 6.51478 10.554C6.50022 10.4747 6.47617 10.3984 6.4434 10.3276C6.40644 10.2477 6.35461 10.1774 6.25096 10.037L2.32792 4.72239Z" stroke="black" stroke-width="2" stroke-linecap="round" stroke-linejoin="round"/>
</svg>
