<svg width="20" height="19" viewBox="0 0 20 19" fill="none" xmlns="http://www.w3.org/2000/svg">
<g clip-path="url(#clip0_89_496)">
<rect width="20" height="18.1818" rx="9.09091" fill="#FFFAFA"/>
<path d="M10 1.63707C12.6719 1.63707 12.9883 1.64773 14.0391 1.69034C15.0156 1.7294 15.543 1.87855 15.8945 2.00284C16.3594 2.16619 16.6953 2.36506 17.043 2.68111C17.3945 3.00071 17.6094 3.30256 17.7891 3.72514C17.9258 4.04474 18.0898 4.5277 18.1328 5.41193C18.1797 6.37074 18.1914 6.65838 18.1914 9.08381C18.1914 11.5128 18.1797 11.8004 18.1328 12.7557C18.0898 13.6435 17.9258 14.1229 17.7891 14.4425C17.6094 14.8651 17.3906 15.1705 17.043 15.4865C16.6914 15.8061 16.3594 16.0014 15.8945 16.1648C15.543 16.2891 15.0117 16.4382 14.0391 16.4773C12.9844 16.5199 12.668 16.5305 10 16.5305C7.32813 16.5305 7.01172 16.5199 5.96094 16.4773C4.98438 16.4382 4.45703 16.2891 4.10547 16.1648C3.64063 16.0014 3.30469 15.8026 2.95703 15.4865C2.60547 15.1669 2.39063 14.8651 2.21094 14.4425C2.07422 14.1229 1.91016 13.6399 1.86719 12.7557C1.82031 11.7969 1.80859 11.5092 1.80859 9.08381C1.80859 6.65483 1.82031 6.36719 1.86719 5.41193C1.91016 4.52415 2.07422 4.04474 2.21094 3.72514C2.39063 3.30256 2.60938 2.99716 2.95703 2.68111C3.30859 2.36151 3.64063 2.16619 4.10547 2.00284C4.45703 1.87855 4.98828 1.7294 5.96094 1.69034C7.01172 1.64773 7.32813 1.63707 10 1.63707ZM10 0C7.28516 0 6.94531 0.0106534 5.87891 0.053267C4.81641 0.0958807 4.08594 0.252131 3.45313 0.475852C2.79297 0.710227 2.23438 1.01918 1.67969 1.52699C1.12109 2.03125 0.78125 2.53906 0.523438 3.13565C0.277344 3.71449 0.105469 4.375 0.0585938 5.34091C0.0117188 6.31392 0 6.62287 0 9.09091C0 11.5589 0.0117188 11.8679 0.0585938 12.8374C0.105469 13.8033 0.277344 14.4673 0.523438 15.0426C0.78125 15.6428 1.12109 16.1506 1.67969 16.6548C2.23438 17.1591 2.79297 17.4716 3.44922 17.7024C4.08594 17.9261 4.8125 18.0824 5.875 18.125C6.94141 18.1676 7.28125 18.1783 9.99609 18.1783C12.7109 18.1783 13.0508 18.1676 14.1172 18.125C15.1797 18.0824 15.9102 17.9261 16.543 17.7024C17.1992 17.4716 17.7578 17.1591 18.3125 16.6548C18.8672 16.1506 19.2109 15.6428 19.4648 15.0462C19.7109 14.4673 19.8828 13.8068 19.9297 12.8409C19.9766 11.8714 19.9883 11.5625 19.9883 9.09446C19.9883 6.62642 19.9766 6.31747 19.9297 5.34801C19.8828 4.3821 19.7109 3.71804 19.4648 3.14276C19.2188 2.53906 18.8789 2.03125 18.3203 1.52699C17.7656 1.02273 17.207 0.710227 16.5508 0.479403C15.9141 0.255682 15.1875 0.0994318 14.125 0.0568182C13.0547 0.0106534 12.7148 0 10 0Z" fill="#060606"/>
<path d="M10 4.42114C7.16406 4.42114 4.86328 6.51276 4.86328 9.09089C4.86328 11.669 7.16406 13.7606 10 13.7606C12.8359 13.7606 15.1367 11.669 15.1367 9.09089C15.1367 6.51276 12.8359 4.42114 10 4.42114ZM10 12.12C8.16016 12.12 6.66797 10.7635 6.66797 9.09089C6.66797 7.4183 8.16016 6.06177 10 6.06177C11.8398 6.06177 13.332 7.4183 13.332 9.09089C13.332 10.7635 11.8398 12.12 10 12.12Z" fill="#060606"/>
<path d="M16.5391 4.2365C16.5391 4.8402 16 5.3267 15.3398 5.3267C14.6758 5.3267 14.1406 4.83664 14.1406 4.2365C14.1406 3.63281 14.6797 3.1463 15.3398 3.1463C16 3.1463 16.5391 3.63636 16.5391 4.2365Z" fill="#060606"/>
</g>
<defs>
<clipPath id="clip0_89_496">
<rect width="20" height="18.1818" rx="9.09091" fill="white"/>
</clipPath>
</defs>
</svg>
